<svg xmlns="http://www.w3.org/2000/svg" height="24" viewBox="0 96 960 960" width="24" fill="currentColor"><path d="M230.002 948.306q-30.307 0-51.307-21-21-21-21-51.307V368.31h59.999v507.689q0 4.615 3.846 8.462 3.846 3.846 8.462 3.846h387.689v59.999H230.002Zm139.999-139.999q-30.308 0-51.308-21-20.999-21-20.999-51.307V280.617q0-30.307 20.999-51.307 21-21 51.308-21h335.383q30.307 0 51.307 21 21 21 21 51.307V736q0 30.307-21 51.307-21 21-51.307 21H370.001Zm0-59.998h335.383q4.615 0 8.462-3.847 3.846-3.846 3.846-8.462V280.617q0-4.616-3.846-8.462-3.847-3.846-8.462-3.846H370.001q-4.616 0-8.462 3.846-3.847 3.846-3.847 8.462V736q0 4.616 3.847 8.462 3.846 3.847 8.462 3.847Zm-12.309 0v-480V748.309Z"/></svg>