<svg xmlns="http://www.w3.org/2000/svg" height="24" viewBox="0 96 960 960" width="24" fill="currentColor"><path d="M481.154 915.999q-141.666 0-240.832-99.167Q141.155 717.666 141.155 576q0-135.768 92.115-232.883 92.114-97.115 225.575-105.192 8.615 0 16.922.615t16.307 1.846q-30.615 28.615-48.768 69.153-18.154 40.539-18.154 86.461 0 98.334 68.834 167.168 68.834 68.833 167.168 68.833 46.538 0 86.768-18.153 40.23-18.153 68.461-48.768 1.231 8 1.846 16.307.616 8.307.616 16.922-7.693 133.461-104.808 225.575-97.115 92.115-232.883 92.115Zm0-59.999q88 0 158-48.5t102-126.5q-20 5-40 8t-40 3q-123 0-209.5-86.5t-86.5-209.5q0-20 3-40t8-40q-78 32-126.5 102t-48.5 158q0 116 82 198t198 82Zm-10-270Z"/></svg>