<svg xmlns="http://www.w3.org/2000/svg" height="24" viewBox="0 96 960 960" width="24" fill="currentColor"><path d="M480 696q50 0 85-35t35-85q0-50-35-85t-85-35q-50 0-85 35t-35 85q0 50 35 85t85 35Zm0 59.999q-74.922 0-127.461-52.538Q300.001 650.922 300.001 576t52.538-127.461Q405.078 396.001 480 396.001t127.461 52.538Q659.999 501.078 659.999 576t-52.538 127.461Q554.922 755.999 480 755.999Zm-400-150q-12.75 0-21.374-8.628Q50 588.742 50 575.987q0-12.756 8.625-21.371 8.624-8.615 21.374-8.615h90.001q12.749 0 21.374 8.628Q200 563.258 200 576.013q0 12.756-8.625 21.371-8.625 8.615-21.374 8.615H80Zm709.999 0q-12.749 0-21.374-8.628Q760 588.742 760 575.987q0-12.756 8.625-21.371 8.625-8.615 21.374-8.615H880q12.75 0 21.375 8.628 8.624 8.629 8.624 21.384 0 12.756-8.624 21.371-8.625 8.615-21.375 8.615h-90.001ZM479.987 296q-12.756 0-21.371-8.625-8.615-8.625-8.615-21.374V176q0-12.75 8.628-21.375 8.629-8.624 21.384-8.624 12.756 0 21.371 8.624 8.615 8.625 8.615 21.375v90.001q0 12.749-8.628 21.374Q492.742 296 479.987 296Zm0 710q-12.756 0-21.371-8.626-8.615-8.624-8.615-21.374v-90.001q0-12.749 8.628-21.374Q467.258 856 480.013 856q12.756 0 21.371 8.625 8.615 8.625 8.615 21.374V976q0 12.75-8.628 21.374-8.629 8.626-21.384 8.626ZM240.232 377.615l-50.308-48.923q-8.923-8.308-8.616-20.884.308-12.577 8.733-21.884 9.19-9.308 21.574-9.308 12.385 0 21.077 9.308L282 335.847q8.692 9.308 8.692 21.077 0 11.769-8.5 21.076-8.499 9.307-20.576 8.807t-21.384-9.192Zm487.076 488.461L678 816.153q-8.692-9.308-8.692-21.384 0-12.077 8.692-20.769 8.115-9.307 20.288-8.807t21.48 9.192l50.308 48.923q8.923 8.308 8.616 20.884-.308 12.577-8.733 21.884-9.19 9.308-21.574 9.308-12.385 0-21.077-9.308ZM678 378.192q-9.307-8.499-8.807-20.576t9.192-21.384l48.923-50.308q8.308-8.923 20.884-8.616 12.577.308 21.884 8.733 9.308 9.19 9.308 21.574 0 12.385-9.308 21.077L720.153 378q-9.308 8.692-21.077 8.692-11.769 0-21.076-8.5ZM189.924 866.16q-9.308-9.391-9.308-21.775 0-12.385 9.308-21.077L239.847 774q9.308-8.692 21.384-8.692 12.077 0 20.769 8.692 8.923 8.115 8.423 20.288t-8.808 21.48l-48.923 50.308q-8.692 9.308-21.077 9-12.384-.307-21.691-8.916ZM480 576Z"/></svg>