<svg xmlns="http://www.w3.org/2000/svg" height="24" viewBox="0 -960 960 960" width="24" fill="currentColor"><path d="M480.091-336.924q67.985 0 115.485-47.59 47.5-47.591 47.5-115.577 0-67.985-47.59-115.485-47.591-47.5-115.577-47.5-67.985 0-115.485 47.59-47.5 47.591-47.5 115.577 0 67.985 47.59 115.485 47.591 47.5 115.577 47.5ZM480-392q-45 0-76.5-31.5T372-500q0-45 31.5-76.5T480-608q45 0 76.5 31.5T588-500q0 45-31.5 76.5T480-392Zm.055 171.999q-137.977 0-251.439-76.115Q115.155-372.231 61.54-500q53.615-127.769 167.022-203.884 113.406-76.115 251.383-76.115t251.439 76.115Q844.845-627.769 898.46-500q-53.615 127.769-167.022 203.884-113.406 76.115-251.383 76.115ZM480-500Zm0 220q113 0 207.5-59.5T832-500q-50-101-144.5-160.5T480-720q-113 0-207.5 59.5T128-500q50 101 144.5 160.5T480-280Z"/></svg>