<svg xmlns="http://www.w3.org/2000/svg" height="24" viewBox="0 96 960 960" width="24" fill="currentColor"><path d="M630.922 614.922 586 570q9-49.693-28.346-89.346Q520.307 441 466 450l-44.922-44.922q13.538-6.077 27.769-9.115 14.23-3.039 31.153-3.039 68.076 0 115.576 47.5T643.076 556q0 16.923-3.039 31.538-3.038 14.615-9.115 27.384Zm127.231 124.462L714 698q38-29 67.5-63.5T832 556q-50-101-143.5-160.5T480 336q-29 0-57 4t-55 12l-46.614-46.614q37.923-15.077 77.461-22.231 39.538-7.154 81.153-7.154 140.615 0 253.614 77.538 113 77.539 164.846 202.461-22.231 53.615-57.423 100.076-35.192 46.461-82.884 83.308Zm32.308 231.383L628.616 810.152q-30.769 11.385-68.192 18.616Q523 835.999 480 835.999q-140.999 0-253.614-77.538Q113.771 680.922 61.54 556q22.154-53 57.231-98.885 35.077-45.884 77.231-79.576l-110.77-112 42.154-42.153 705.228 705.228-42.153 42.153ZM238.155 419.691q-31.692 25.231-61.654 60.655Q146.539 515.769 128 556q50 101 143.5 160.5T480 776q27.308 0 54.386-4.616 27.077-4.615 45.923-9.538l-50.616-51.847q-10.231 4.153-23.693 6.615-13.461 2.462-26 2.462-68.076 0-115.576-47.5T316.924 556q0-12.154 2.462-25.423 2.462-13.27 6.615-24.27l-87.846-86.616ZM541 525Zm-131.768 65.769Z"/></svg>
