<svg xmlns="http://www.w3.org/2000/svg" xmlns:xlink="http://www.w3.org/1999/xlink" version="1.1" id="Layer_1" x="0px" y="0px" width="100%" viewBox="0 0 400 400" enable-background="new 0 0 400 400" xml:space="preserve">
<path fill="#784DEF" opacity="1.000000" stroke="none" d=" M199.000656,4.000412   C226.501740,2.729764 252.458862,7.985774 277.181091,18.281088   C295.144562,25.761803 311.739044,35.967342 326.983154,48.337967   C341.416534,60.050694 354.095581,73.325516 364.171997,88.842606   C377.909790,109.998016 388.836365,132.510345 394.700256,157.272522   C399.435211,177.267349 400.223572,197.629395 398.761505,217.855972   C396.362701,251.041412 384.433411,281.146210 366.601074,309.204987   C359.037750,321.105682 350.575745,332.213623 340.473358,341.745300   C315.897614,364.932617 287.681427,381.908295 254.790985,391.309662   C230.849396,398.153137 206.563049,399.364990 182.274796,397.678528   C153.671539,395.692383 126.766281,386.815094 101.860519,372.076660   C86.229866,362.826935 71.664368,352.229584 59.013905,339.319916   C41.550545,321.498779 28.920969,300.451599 18.619476,277.688080   C11.394756,261.723358 6.358674,245.201172 4.458381,228.124954   C2.714175,212.451355 3.706034,196.433380 4.048266,180.579147   C4.364424,165.932831 7.932924,151.756638 13.042834,138.139679   C21.509287,115.578140 32.509480,94.404526 47.832470,75.489365   C68.342880,50.170704 94.123650,32.149963 123.514023,18.969337   C138.273514,12.350191 153.780090,7.823778 169.920959,6.059478   C179.409241,5.022350 188.971725,4.664042 199.000656,4.000412  M139.922623,307.339569   C158.156403,302.636719 164.593475,292.296692 165.444855,265.900818   C193.126785,265.900818 220.823929,265.900818 249.011551,265.900818   C249.011551,269.796417 249.001923,273.269592 249.013351,276.742676   C249.047134,287.001556 249.370697,287.219330 259.779724,286.327667   C262.491394,286.095398 263.680206,285.030975 263.631500,282.312439   C263.550903,277.814148 263.507019,273.309875 263.672485,268.816406   C263.713348,267.706787 264.333832,266.044739 265.175262,265.633240   C269.943939,263.301025 273.821381,265.831055 273.864960,271.086517   C273.889862,274.086151 273.893646,277.086029 273.906616,280.085785   C273.953156,290.840057 273.978546,290.782257 284.851318,290.004944   C287.463562,289.818207 288.350769,288.843262 288.290924,286.352783   C288.182892,281.855499 288.242798,277.354095 288.238312,272.854431   C288.230988,265.529572 288.241425,265.663666 295.682678,265.193115   C297.257141,265.093567 299.891968,263.802368 300.061768,262.743317   C300.620697,259.257385 300.272156,255.626007 300.272156,251.746368   C297.236145,251.746368 295.083832,251.742386 292.931519,251.746948   C248.601929,251.840820 204.271744,251.850372 159.943604,252.155579   C155.248474,252.187897 150.565292,253.956375 145.224045,255.053452   C146.388992,257.832428 147.130905,259.132996 147.485016,260.531769   C148.728943,265.445282 150.529449,270.348602 150.847107,275.336792   C151.392639,283.902924 145.999542,290.908752 138.034561,293.459747   C129.188736,296.292877 117.496910,293.182037 113.052925,286.812897   C106.234283,277.040375 109.756119,265.035034 120.971748,260.522186   C135.628189,254.624847 150.569885,249.395355 165.025864,243.051376   C183.059235,235.137482 200.459320,225.929825 214.249100,211.352921   C225.064011,199.920700 229.393143,186.016922 225.727585,170.919022   C221.706879,154.358292 209.567535,146.333054 190.666061,144.994888   C168.912369,143.454788 152.998245,154.336700 141.751511,172.072708   C130.470383,189.862976 125.994621,209.922180 124.515327,230.712158   C124.429070,231.924500 125.179596,233.918320 126.109581,234.365540   C132.876633,237.619919 139.002762,234.084152 139.731750,226.730301   C139.797333,226.068741 139.738770,225.395157 139.799530,224.732803   C141.369278,207.617508 145.493927,191.272751 155.431534,176.963394   C164.223602,164.303497 176.097168,157.606720 192.031586,159.115387   C205.028259,160.345917 213.461899,169.310577 212.492523,181.405090   C211.735992,190.844009 207.446991,198.728897 200.464050,205.309769   C189.502502,215.640167 176.533234,222.830933 162.988266,228.782227   C147.015671,235.800156 130.521988,241.624329 114.321114,248.132538   C98.156784,254.626099 91.371597,272.591614 97.761986,288.640381   C103.431351,302.878357 122.197937,311.540802 139.922623,307.339569  M205.959732,99.369400   C192.595337,105.203484 184.507629,115.692116 179.678436,129.086060   C177.536743,135.026154 177.870163,135.463638 183.887375,134.614578   C185.687454,134.360580 187.674515,134.868561 189.330765,134.305862   C191.253113,133.652725 193.759506,132.626770 194.543503,131.037857   C202.542511,114.826752 209.789795,110.418594 227.638916,111.467339   C238.878403,112.127731 249.750443,121.515137 251.834717,132.815506   C246.945496,132.815506 242.132950,132.619598 237.341766,132.856354   C227.427048,133.346313 223.046234,141.147705 227.581314,150.012619   C228.641418,152.084869 229.825607,154.093552 230.947876,156.134125   C239.779755,172.192520 238.704269,188.595322 231.075790,204.389450   C224.030838,218.975388 210.932449,227.947067 197.505295,236.213516   C195.794189,237.266983 194.156662,238.439957 192.485062,239.557556   C192.641342,240.059341 192.797638,240.561111 192.953934,241.062881   C196.849335,241.062881 200.828476,240.547165 204.623795,241.163483   C214.437119,242.757034 221.536133,238.452988 227.786560,231.645630   C230.147797,229.074036 232.860718,226.821655 235.180588,224.216507   C241.666626,216.932877 246.997253,208.879440 249.009659,199.201935   C252.560699,182.125427 253.506287,165.199936 244.216797,149.300369   C243.936859,148.821243 244.067429,148.102234 243.914139,146.571747   C254.162720,147.630310 263.963989,148.642670 274.845917,149.766647   C274.360565,145.008896 275.174713,139.941406 273.222198,136.398758   C268.204834,127.295273 262.980743,117.923309 255.988602,110.372353   C242.506287,95.812546 225.086227,94.424881 205.959732,99.369400  M127.506310,264.026886   C120.045952,266.977814 116.997643,273.475433 120.359146,279.261505   C123.415276,284.521942 129.459534,286.764587 134.978485,284.685913   C140.163879,282.732788 143.300842,276.950897 141.939270,271.856018   C140.407639,266.124817 135.301132,263.144714 127.506310,264.026886  z"/>
<path fill="#FFFFFF" opacity="1.000000" stroke="none" d=" M139.543091,307.502655   C122.197937,311.540802 103.431351,302.878357 97.761986,288.640381   C91.371597,272.591614 98.156784,254.626099 114.321114,248.132538   C130.521988,241.624329 147.015671,235.800156 162.988266,228.782227   C176.533234,222.830933 189.502502,215.640167 200.464050,205.309769   C207.446991,198.728897 211.735992,190.844009 212.492523,181.405090   C213.461899,169.310577 205.028259,160.345917 192.031586,159.115387   C176.097168,157.606720 164.223602,164.303497 155.431534,176.963394   C145.493927,191.272751 141.369278,207.617508 139.799530,224.732803   C139.738770,225.395157 139.797333,226.068741 139.731750,226.730301   C139.002762,234.084152 132.876633,237.619919 126.109581,234.365540   C125.179596,233.918320 124.429070,231.924500 124.515327,230.712158   C125.994621,209.922180 130.470383,189.862976 141.751511,172.072708   C152.998245,154.336700 168.912369,143.454788 190.666061,144.994888   C209.567535,146.333054 221.706879,154.358292 225.727585,170.919022   C229.393143,186.016922 225.064011,199.920700 214.249100,211.352921   C200.459320,225.929825 183.059235,235.137482 165.025864,243.051376   C150.569885,249.395355 135.628189,254.624847 120.971748,260.522186   C109.756119,265.035034 106.234283,277.040375 113.052925,286.812897   C117.496910,293.182037 129.188736,296.292877 138.034561,293.459747   C145.999542,290.908752 151.392639,283.902924 150.847107,275.336792   C150.529449,270.348602 148.728943,265.445282 147.485016,260.531769   C147.130905,259.132996 146.388992,257.832428 145.224045,255.053452   C150.565292,253.956375 155.248474,252.187897 159.943604,252.155579   C204.271744,251.850372 248.601929,251.840820 292.931519,251.746948   C295.083832,251.742386 297.236145,251.746368 300.272156,251.746368   C300.272156,255.626007 300.620697,259.257385 300.061768,262.743317   C299.891968,263.802368 297.257141,265.093567 295.682678,265.193115   C288.241425,265.663666 288.230988,265.529572 288.238312,272.854431   C288.242798,277.354095 288.182892,281.855499 288.290924,286.352783   C288.350769,288.843262 287.463562,289.818207 284.851318,290.004944   C273.978546,290.782257 273.953156,290.840057 273.906616,280.085785   C273.893646,277.086029 273.889862,274.086151 273.864960,271.086517   C273.821381,265.831055 269.943939,263.301025 265.175262,265.633240   C264.333832,266.044739 263.713348,267.706787 263.672485,268.816406   C263.507019,273.309875 263.550903,277.814148 263.631500,282.312439   C263.680206,285.030975 262.491394,286.095398 259.779724,286.327667   C249.370697,287.219330 249.047134,287.001556 249.013351,276.742676   C249.001923,273.269592 249.011551,269.796417 249.011551,265.900818   C220.823929,265.900818 193.126785,265.900818 165.444855,265.900818   C164.593475,292.296692 158.156403,302.636719 139.543091,307.502655  z"/>
<path fill="#FFFFFF" opacity="1.000000" stroke="none" d=" M206.340668,99.277756   C225.086227,94.424881 242.506287,95.812546 255.988602,110.372353   C262.980743,117.923309 268.204834,127.295273 273.222198,136.398758   C275.174713,139.941406 274.360565,145.008896 274.845917,149.766647   C263.963989,148.642670 254.162720,147.630310 243.914139,146.571747   C244.067429,148.102234 243.936859,148.821243 244.216797,149.300369   C253.506287,165.199936 252.560699,182.125427 249.009659,199.201935   C246.997253,208.879440 241.666626,216.932877 235.180588,224.216507   C232.860718,226.821655 230.147797,229.074036 227.786560,231.645630   C221.536133,238.452988 214.437119,242.757034 204.623795,241.163483   C200.828476,240.547165 196.849335,241.062881 192.953934,241.062881   C192.797638,240.561111 192.641342,240.059341 192.485062,239.557556   C194.156662,238.439957 195.794189,237.266983 197.505295,236.213516   C210.932449,227.947067 224.030838,218.975388 231.075790,204.389450   C238.704269,188.595322 239.779755,172.192520 230.947876,156.134125   C229.825607,154.093552 228.641418,152.084869 227.581314,150.012619   C223.046234,141.147705 227.427048,133.346313 237.341766,132.856354   C242.132950,132.619598 246.945496,132.815506 251.834717,132.815506   C249.750443,121.515137 238.878403,112.127731 227.638916,111.467339   C209.789795,110.418594 202.542511,114.826752 194.543503,131.037857   C193.759506,132.626770 191.253113,133.652725 189.330765,134.305862   C187.674515,134.868561 185.687454,134.360580 183.887375,134.614578   C177.870163,135.463638 177.536743,135.026154 179.678436,129.086060   C184.507629,115.692116 192.595337,105.203484 206.340668,99.277756  z"/>
<path fill="#FFFFFF" opacity="1.000000" stroke="none" d=" M127.877518,263.946655   C135.301132,263.144714 140.407639,266.124817 141.939270,271.856018   C143.300842,276.950897 140.163879,282.732788 134.978485,284.685913   C129.459534,286.764587 123.415276,284.521942 120.359146,279.261505   C116.997643,273.475433 120.045952,266.977814 127.877518,263.946655  z"/>
</svg>
